<svg width="199" height="204" viewBox="0 0 199 204" fill="none" xmlns="http://www.w3.org/2000/svg">
<path d="M106.976 36.6642L148.745 33.1835C155.243 32.7193 169.398 31.5591 178.216 40.3771L191.211 53.372C197.476 59.6374 198.404 68.4553 198.404 74.0246C198.404 102.799 166.845 153.85 140.855 153.85C137.375 153.85 128.557 152.922 121.131 145.497L117.418 141.784L120.667 173.575C123.219 197.94 104.887 203.045 92.8207 203.045C86.3232 203.045 80.0578 200.957 74.9527 195.852L61.9578 182.857C59.6373 180.536 56.1565 176.824 54.9962 165.685L48.9629 107.44L42.4654 108.136C29.2385 109.529 22.741 104.191 20.1884 101.639L7.19353 88.6439C0.464023 81.9143 -8.1718e-05 71.7041 -8.1718e-05 68.6874C-8.1718e-05 60.1015 3.24865 45.2501 24.3654 43.6258L42.4654 42.2335L41.0731 29.2386C38.0564 0.928242 62.6539 3.2614e-05 69.1514 3.2614e-05C78.4335 3.2614e-05 84.6989 4.40902 87.2514 6.96158L100.246 19.9565C104.887 24.5975 106.048 30.1668 106.976 36.6642ZM98.3899 161.508L90.2681 79.3618L132.037 74.9528C133.894 74.7207 136.446 74.4887 136.446 76.8092C136.446 82.1464 127.861 93.2849 120.899 99.5503C112.313 106.976 109.993 109.064 109.993 115.098C109.993 123.916 119.043 131.573 127.628 131.573C147.121 131.573 176.127 86.0913 176.127 61.0297C176.127 46.1784 168.005 41.0732 149.673 42.4655L87.0194 47.5707L84.6989 24.5975C84.2348 19.4924 83.0745 9.28211 68.9193 9.28211C48.4988 9.28211 49.8911 23.2052 50.3552 28.3104L52.6757 50.5873L25.0615 52.9079C18.7961 53.372 9.28199 55.2284 9.28199 68.9194C9.28199 72.8643 9.28199 87.7156 28.5423 85.8592L55.9244 83.0746L64.0462 164.757C64.5103 169.398 65.6706 180.768 80.5219 180.768C100.246 180.768 98.854 165.685 98.3899 161.508Z" fill="black"/>
</svg>
