<svg width="407" height="204" viewBox="0 0 407 204" fill="none" xmlns="http://www.w3.org/2000/svg">
<path d="M106.976 36.6642L148.745 33.1835C155.243 32.7193 169.398 31.5591 178.216 40.3771L191.211 53.372C197.476 59.6374 198.404 68.4553 198.404 74.0246C198.404 102.799 166.845 153.85 140.855 153.85C137.375 153.85 128.557 152.922 121.131 145.497L117.418 141.784L120.667 173.575C123.219 197.94 104.887 203.045 92.8207 203.045C86.3232 203.045 80.0578 200.957 74.9527 195.852L61.9578 182.857C59.6373 180.536 56.1565 176.824 54.9962 165.685L48.9629 107.44L42.4654 108.136C29.2385 109.529 22.741 104.191 20.1884 101.639L7.19353 88.6439C0.464023 81.9143 -8.1718e-05 71.7041 -8.1718e-05 68.6874C-8.1718e-05 60.1015 3.24865 45.2501 24.3654 43.6258L42.4654 42.2335L41.0731 29.2386C38.0564 0.928242 62.6539 3.2614e-05 69.1514 3.2614e-05C78.4335 3.2614e-05 84.6989 4.40902 87.2514 6.96158L100.246 19.9565C104.887 24.5975 106.048 30.1668 106.976 36.6642ZM98.3899 161.508L90.2681 79.3618L132.037 74.9528C133.894 74.7207 136.446 74.4887 136.446 76.8092C136.446 82.1464 127.861 93.2849 120.899 99.5503C112.313 106.976 109.993 109.064 109.993 115.098C109.993 123.916 119.043 131.573 127.628 131.573C147.121 131.573 176.127 86.0913 176.127 61.0297C176.127 46.1784 168.005 41.0732 149.673 42.4655L87.0194 47.5707L84.6989 24.5975C84.2348 19.4924 83.0745 9.28211 68.9193 9.28211C48.4988 9.28211 49.8911 23.2052 50.3552 28.3104L52.6757 50.5873L25.0615 52.9079C18.7961 53.372 9.28199 55.2284 9.28199 68.9194C9.28199 72.8643 9.28199 87.7156 28.5423 85.8592L55.9244 83.0746L64.0462 164.757C64.5103 169.398 65.6706 180.768 80.5219 180.768C100.246 180.768 98.854 165.685 98.3899 161.508ZM309.325 15.3155L322.32 28.3104C326.729 32.7193 330.21 40.8412 335.315 58.4771C336.243 54.5322 340.188 36.4322 341.116 32.9514C345.525 16.9398 357.592 14.6193 364.089 14.6193C369.427 14.6193 379.405 15.5475 387.062 23.2052L400.057 36.2001C403.77 39.913 406.091 46.1784 406.091 51.7476C406.091 61.9579 396.112 105.584 374.764 136.911C339.492 188.658 282.175 200.029 272.429 200.029C270.34 200.029 262.451 199.565 256.185 193.299L243.19 180.536C237.621 175.199 234.372 166.845 234.372 159.188C234.372 143.408 244.583 140.391 264.539 133.894C286.584 126.932 297.026 119.507 305.38 111.849C302.828 111.153 299.811 110.225 296.33 106.744L289.369 99.7823C288.208 115.098 272.893 122.523 259.898 122.523C254.329 122.523 248.527 120.667 244.119 116.258L231.124 103.263C226.947 99.0862 226.483 97.6939 221.377 78.8977C220.217 74.4887 214.88 60.3335 212.559 53.8361C211.399 51.0515 210.239 47.3386 210.239 42.4655C210.239 27.6142 224.162 18.7962 238.549 18.7962C245.975 18.7962 251.312 22.045 254.329 25.0616L265.003 35.736C262.451 14.3872 283.567 8.818 290.993 8.818C293.081 8.818 302.828 8.818 309.325 15.3155ZM247.599 100.246C253.401 100.246 267.092 96.7657 267.092 85.1631C267.092 78.4336 258.738 52.9079 253.169 40.3771C249.688 32.4873 246.207 28.0783 238.085 28.0783C229.731 28.0783 219.289 32.9514 219.289 42.2335C219.289 45.7143 220.449 48.2668 221.377 50.8194C226.483 64.0464 228.803 71.0079 230.427 76.8092C235.765 95.8375 236.925 100.246 247.599 100.246ZM300.043 90.7323C304.22 90.7323 319.303 88.6439 319.303 75.4169C319.303 70.0797 313.27 45.2501 307.933 31.327C304.916 23.6693 302.131 18.1001 292.385 18.1001C284.728 18.1001 274.053 22.045 274.053 32.0232C274.053 35.0399 274.517 37.1283 276.606 43.1617C281.247 56.8527 282.871 63.3502 285.192 75.4169C286.584 82.1464 288.208 90.7323 300.043 90.7323ZM383.814 39.6809C383.814 24.5975 367.57 23.9014 364.553 23.9014C352.255 23.9014 351.326 29.4706 345.989 54.0681C331.37 122.755 287.048 136.447 262.683 144.104C248.76 148.513 243.654 150.138 243.654 158.956C243.654 165.917 248.295 177.752 259.434 177.752C266.163 177.752 320.464 168.006 354.575 118.346C373.371 90.7323 383.814 47.8027 383.814 39.6809Z" fill="black"/>
</svg>
